<svg width="24" height="24" viewBox="0 0 24 24" fill="none" xmlns="http://www.w3.org/2000/svg">
<circle cx="12" cy="12" r="12" fill="#171A20"/>
<path d="M5.38892 15.7593H7.75929V18.1296H5.38892V15.7593Z" fill="#00FFFF"/>
<path d="M7.75929 13.3889H10.1297V15.7593H7.75929V13.3889Z" fill="#00FFFF"/>
<path d="M10.1297 11.0185H12.5V13.3889L10.1297 13.3889V11.0185Z" fill="#00FFFF"/>
<path d="M7.75929 8.64814H10.1297V11.0185H7.75929V8.64814Z" fill="#00FFFF"/>
<path d="M5.38892 6.27777H7.75929V8.64814H5.38892V6.27777Z" fill="#00FFFF"/>
<path d="M12.5 15.7591H14.8704V18.1295H12.5V15.7591Z" fill="#00FFFF"/>
<path d="M14.8704 13.3887H17.2407V15.7591L14.8704 15.7591L14.8704 13.3887Z" fill="#00FFFF"/>
<path d="M17.2407 11.0183H19.6111V13.3887L17.2407 13.3887L17.2407 11.0183Z" fill="#00FFFF"/>
<path d="M14.8704 8.64797H17.2407L17.2407 11.0183L14.8704 11.0183V8.64797Z" fill="#00FFFF"/>
<path d="M12.5 6.2776H14.8704L14.8704 8.64797L12.5 8.64797V6.2776Z" fill="#00FFFF"/>
</svg>
