<svg width="33" height="32" viewBox="0 0 33 32" fill="none" xmlns="http://www.w3.org/2000/svg">
<path d="M18.7151 11.05C17.2743 12.0444 15.7249 12.3852 14.07 12.0703C12.4121 11.7574 11.0953 10.8909 10.1165 9.47284L8.66016 7.36279L10.7493 5.9209L12.2057 8.031C12.785 8.87047 13.5584 9.37933 14.5284 9.55563C15.4956 9.73384 16.4067 9.52795 17.256 8.94183L20.9415 6.3822C22.1129 5.56865 23.7223 5.86121 24.5324 7.03501L18.7151 11.05Z" fill="white"/>
<path d="M21.5359 18.0613C20.5396 16.6177 20.1963 15.0667 20.508 13.4112C20.8178 11.7528 21.6814 10.4366 23.0968 9.45973L25.2029 8.0061L26.6475 10.0992L24.5414 11.5528C23.7035 12.1311 23.1963 12.904 23.0219 13.8744C22.8455 14.842 23.0528 15.754 23.6401 16.6049L26.2101 20.3054C27.0221 21.4746 26.7301 23.081 25.5585 23.8896L21.5359 18.0613Z" fill="white"/>
<path d="M14.4979 20.8955C15.9388 19.901 17.4882 19.5603 19.1431 19.8752C20.8009 20.1881 22.1178 21.0546 23.0966 22.4726L24.5529 24.5827L22.4638 26.0246L21.0074 23.9145C20.428 23.075 19.6547 22.5662 18.6847 22.3899C17.7174 22.2116 16.8064 22.4175 15.9571 23.0036L12.2716 25.5633C11.1002 26.3768 9.49079 26.0842 8.68066 24.9105L14.4979 20.8955Z" fill="white"/>
<path d="M11.8036 14.0679C12.7999 15.5115 13.1432 17.0625 12.8315 18.7181C12.5217 20.3764 11.6581 21.6926 10.2427 22.6695L8.13665 24.1231L6.69203 22.03L8.79811 20.5765C9.63602 19.9981 10.1432 19.2252 10.3177 18.2548C10.4941 17.2872 10.2867 16.3752 9.69943 15.5243L7.12943 11.8238C6.31744 10.6546 6.60944 9.04824 7.78103 8.23962L11.8036 14.0679Z" fill="white"/>
</svg>
