<svg width="56" height="56" viewBox="0 0 56 56" fill="none" xmlns="http://www.w3.org/2000/svg">
<path d="M42.9333 5.59068V5.60934" stroke="#00FFFF" stroke-opacity="0.01" stroke-width="3.73333" stroke-linecap="square"/>
<path d="M35.4667 5.59068V5.60934" stroke="#00FFFF" stroke-opacity="0.01" stroke-width="3.73333" stroke-linecap="square"/>
<path d="M28 5.59068V5.60934" stroke="#00FFFF" stroke-opacity="0.01" stroke-width="3.73333" stroke-linecap="square"/>
<path d="M20.5333 5.59068V5.60934" stroke="#00FFFF" stroke-opacity="0.01" stroke-width="3.73333" stroke-linecap="square"/>
<path d="M13.0667 5.59068V5.60934" stroke="#00FFFF" stroke-opacity="0.01" stroke-width="3.73333" stroke-linecap="square"/>
<path d="M5.59998 5.59068V5.60934" stroke="#00FFFF" stroke-opacity="0.01" stroke-width="3.73333" stroke-linecap="square"/>
<path d="M42.9333 13.0573V13.076" stroke="#00FFFF" stroke-width="3.73333" stroke-linecap="square"/>
<path d="M35.4667 13.0573V13.076" stroke="#00FFFF" stroke-opacity="0.01" stroke-width="3.73333" stroke-linecap="square"/>
<path d="M28 13.0573V13.076" stroke="#00FFFF" stroke-opacity="0.01" stroke-width="3.73333" stroke-linecap="square"/>
<path d="M13.0667 13.0573V13.076" stroke="#00FFFF" stroke-width="3.73333" stroke-linecap="square"/>
<path d="M5.59998 13.0573V13.076" stroke="#00FFFF" stroke-opacity="0.01" stroke-width="3.73333" stroke-linecap="square"/>
<path d="M42.9333 20.524V20.5427" stroke="#00FFFF" stroke-opacity="0.01" stroke-width="3.73333" stroke-linecap="square"/>
<path d="M35.4667 20.524V20.5427" stroke="#00FFFF" stroke-width="3.73333" stroke-linecap="square"/>
<path d="M35.4667 27.972V27.9907" stroke="#00FFFF" stroke-opacity="0.01" stroke-width="3.73333" stroke-linecap="square"/>
<path d="M28 20.524V20.5427" stroke="#00FFFF" stroke-opacity="0.01" stroke-width="3.73333" stroke-linecap="square"/>
<path d="M20.5333 20.524V20.5427" stroke="#00FFFF" stroke-opacity="0.01" stroke-width="3.73333" stroke-linecap="square"/>
<path d="M20.5333 13.0573V13.076" stroke="#00FFFF" stroke-width="3.73333" stroke-linecap="square"/>
<path d="M5.59998 20.524V20.5427" stroke="#00FFFF" stroke-width="3.73333" stroke-linecap="square"/>
<path d="M42.9333 27.9907V28.0093" stroke="#00FFFF" stroke-opacity="0.25" stroke-width="3.73333" stroke-linecap="square"/>
<path d="M42.9333 35.4387V35.4573" stroke="#00FFFF" stroke-opacity="0.25" stroke-width="3.73333" stroke-linecap="square"/>
<path d="M28 27.9907V28.0093" stroke="#00FFFF" stroke-width="3.73333" stroke-linecap="square"/>
<path d="M13.0667 27.9907V28.0093" stroke="#00FFFF" stroke-opacity="0.25" stroke-width="3.73333" stroke-linecap="square"/>
<path d="M13.0667 20.524V20.5427" stroke="#00FFFF" stroke-opacity="0.25" stroke-width="3.73333" stroke-linecap="square"/>
<path d="M20.5333 27.9907V28.0093" stroke="#00FFFF" stroke-opacity="0.01" stroke-width="3.73333" stroke-linecap="square"/>
<path d="M5.59998 27.9907V28.0093" stroke="#00FFFF" stroke-width="3.73333" stroke-linecap="square"/>
<path d="M20.5333 35.4573V35.476" stroke="#00FFFF" stroke-width="3.73333" stroke-linecap="square"/>
<path d="M28 35.4573V35.476" stroke="#00FFFF" stroke-opacity="0.01" stroke-width="3.73333" stroke-linecap="square"/>
<path d="M35.4667 35.4573V35.476" stroke="#00FFFF" stroke-opacity="0.01" stroke-width="3.73333" stroke-linecap="square"/>
<path d="M13.0667 35.4573V35.476" stroke="#00FFFF" stroke-opacity="0.01" stroke-width="3.73333" stroke-linecap="square"/>
<path d="M5.59998 35.4573V35.476" stroke="#00FFFF" stroke-width="3.73333" stroke-linecap="square"/>
<path d="M42.9333 42.924V42.9427" stroke="#00FFFF" stroke-width="3.73333" stroke-linecap="square"/>
<path d="M50.4 13.0573V13.076" stroke="#00FFFF" stroke-opacity="0.01" stroke-width="3.73333" stroke-linecap="square"/>
<path d="M50.4 5.59068V5.60934" stroke="#00FFFF" stroke-opacity="0.01" stroke-width="3.73333" stroke-linecap="square"/>
<path d="M50.4 20.524V20.5427" stroke="#00FFFF" stroke-width="3.73333" stroke-linecap="square"/>
<path d="M50.4 27.9907V28.0093" stroke="#00FFFF" stroke-width="3.73333" stroke-linecap="square"/>
<path d="M50.4 35.4573V35.476" stroke="#00FFFF" stroke-width="3.73333" stroke-linecap="square"/>
<path d="M50.4 42.924V42.9427" stroke="#00FFFF" stroke-opacity="0.01" stroke-width="3.73333" stroke-linecap="square"/>
<path d="M50.4 50.3907V50.4093" stroke="#00FFFF" stroke-opacity="0.01" stroke-width="3.73333" stroke-linecap="square"/>
<path d="M28 42.924V42.9427" stroke="#00FFFF" stroke-opacity="0.01" stroke-width="3.73333" stroke-linecap="square"/>
<path d="M35.4667 42.924V42.9427" stroke="#00FFFF" stroke-width="3.73333" stroke-linecap="square"/>
<path d="M20.5333 42.924V42.9427" stroke="#00FFFF" stroke-opacity="0.01" stroke-width="3.73333" stroke-linecap="square"/>
<path d="M13.0667 42.924V42.9427" stroke="#00FFFF" stroke-width="3.73333" stroke-linecap="square"/>
<path d="M5.59998 50.3907V50.4093" stroke="#00FFFF" stroke-opacity="0.01" stroke-width="3.73333" stroke-linecap="square"/>
<path d="M5.59998 42.924V42.9427" stroke="#00FFFF" stroke-opacity="0.01" stroke-width="3.73333" stroke-linecap="square"/>
<path d="M42.9333 50.3907V50.4093" stroke="#00FFFF" stroke-opacity="0.01" stroke-width="3.73333" stroke-linecap="square"/>
<path d="M35.4667 50.3907V50.4093" stroke="#00FFFF" stroke-opacity="0.01" stroke-width="3.73333" stroke-linecap="square"/>
<path d="M28 50.3907V50.4093" stroke="#00FFFF" stroke-opacity="0.01" stroke-width="3.73333" stroke-linecap="square"/>
<path d="M20.5333 50.3907V50.4093" stroke="#00FFFF" stroke-opacity="0.01" stroke-width="3.73333" stroke-linecap="square"/>
<path d="M13.0667 50.3907V50.4093" stroke="#00FFFF" stroke-opacity="0.01" stroke-width="3.73333" stroke-linecap="square"/>
</svg>
