<svg width="17" height="16" viewBox="0 0 17 16" fill="none" xmlns="http://www.w3.org/2000/svg">
<path d="M8.5 16C12.9183 16 16.5 12.4183 16.5 8C16.5 3.58172 12.9183 0 8.5 0C4.08172 0 0.5 3.58172 0.5 8C0.5 12.4183 4.08172 16 8.5 16Z" fill="black"/>
<path fill-rule="evenodd" clip-rule="evenodd" d="M5.43701 10.2052C5.46713 10.1721 5.50381 10.1457 5.54473 10.1276C5.58561 10.1094 5.62989 10.1001 5.67461 10.1L13.0058 10.106C13.037 10.1061 13.0676 10.1152 13.0937 10.1323C13.1198 10.1494 13.1404 10.1737 13.153 10.2023C13.1656 10.2308 13.1696 10.2625 13.1646 10.2933C13.1595 10.3241 13.1456 10.3528 13.1246 10.3758L11.5634 12.0948C11.5333 12.128 11.4966 12.1544 11.4556 12.1726C11.4147 12.1907 11.3704 12.2 11.3256 12.2L3.99461 12.194C3.96339 12.194 3.93286 12.1848 3.90673 12.1678C3.8806 12.1507 3.85999 12.1264 3.84741 12.0978C3.83483 12.0692 3.83081 12.0376 3.83586 12.0068C3.8409 11.976 3.85478 11.9473 3.87581 11.9242L5.43701 10.2052ZM13.1246 8.77423C13.1456 8.79731 13.1595 8.82599 13.1646 8.85679C13.1696 8.88759 13.1656 8.91923 13.153 8.94779C13.1404 8.97635 13.1198 9.00067 13.0937 9.01775C13.0676 9.03483 13.037 9.04395 13.0058 9.04403L5.67481 9.05003C5.63005 9.05003 5.58577 9.04067 5.54481 9.02255C5.50385 9.00443 5.46713 8.97795 5.43701 8.94483L3.87581 7.22483C3.85478 7.20175 3.8409 7.17307 3.83586 7.14227C3.83081 7.11147 3.83483 7.07983 3.84741 7.05127C3.85999 7.02271 3.8806 6.99839 3.90673 6.98131C3.93286 6.96423 3.96339 6.95511 3.99461 6.95503L11.3258 6.94903C11.3706 6.94907 11.4148 6.95843 11.4557 6.97655C11.4966 6.99467 11.5333 7.02111 11.5634 7.05423L13.1246 8.77423ZM5.43701 3.90523C5.46713 3.87213 5.50381 3.84567 5.54473 3.82755C5.58561 3.80944 5.62989 3.80006 5.67461 3.80003L13.0058 3.80603C13.037 3.8061 13.0676 3.81523 13.0937 3.83231C13.1198 3.84939 13.1404 3.8737 13.153 3.90227C13.1656 3.93085 13.1696 3.96246 13.1646 3.99327C13.1595 4.02407 13.1456 4.05275 13.1246 4.07583L11.5634 5.79483C11.5333 5.82795 11.4966 5.85443 11.4556 5.87255C11.4147 5.89067 11.3704 5.90003 11.3256 5.90003L3.99461 5.89403C3.96339 5.89395 3.93286 5.88483 3.90673 5.86775C3.8806 5.85067 3.85999 5.82635 3.84741 5.79779C3.83483 5.76923 3.83081 5.73759 3.83586 5.70679C3.8409 5.67599 3.85478 5.64731 3.87581 5.62423L5.43701 3.90523Z" fill="url(#paint0_linear_746_1017)"/>
<defs>
<linearGradient id="paint0_linear_746_1017" x1="4.62155" y1="12.4002" x2="12.3348" y2="3.75994" gradientUnits="userSpaceOnUse">
<stop offset="0.08" stop-color="#9945FF"/>
<stop offset="0.3" stop-color="#8752F3"/>
<stop offset="0.5" stop-color="#5497D5"/>
<stop offset="0.6" stop-color="#43B4CA"/>
<stop offset="0.72" stop-color="#28E0B9"/>
<stop offset="0.97" stop-color="#19FB9B"/>
</linearGradient>
</defs>
</svg>
