<svg width="32" height="32" viewBox="0 0 32 32" fill="none" xmlns="http://www.w3.org/2000/svg">
<path fill-rule="evenodd" clip-rule="evenodd" d="M9.43606 20.7256C9.5006 20.6546 9.5792 20.5979 9.66689 20.5591C9.75449 20.5203 9.84937 20.5002 9.9452 20.5001L25.6549 20.513C25.7219 20.5131 25.7873 20.5327 25.8432 20.5693C25.8993 20.6059 25.9434 20.658 25.9703 20.7192C25.9973 20.7804 26.0059 20.8482 25.9951 20.9142C25.9843 20.9802 25.9546 21.0417 25.9095 21.0911L22.5641 24.7747C22.4995 24.8457 22.4208 24.9024 22.3331 24.9412C22.2454 24.9801 22.1505 25.0001 22.0545 25.0001L6.34522 24.9873C6.27832 24.9871 6.21289 24.9675 6.15689 24.9309C6.1009 24.8943 6.05674 24.8422 6.02978 24.781C6.00282 24.7198 5.99422 24.652 6.00502 24.586C6.01582 24.52 6.04558 24.4586 6.09064 24.4091L9.43606 20.7256ZM25.9095 17.6591C25.9546 17.7086 25.9843 17.77 25.9951 17.836C26.0059 17.902 25.9973 17.9698 25.9703 18.031C25.9434 18.0922 25.8993 18.1443 25.8432 18.1809C25.7873 18.2175 25.7219 18.2371 25.6549 18.2373L9.94563 18.2501C9.84971 18.2501 9.75483 18.2301 9.66706 18.1912C9.57928 18.1524 9.5006 18.0957 9.43606 18.0247L6.09064 14.339C6.04558 14.2895 6.01582 14.2281 6.00502 14.1621C5.99422 14.0961 6.00282 14.0283 6.02978 13.9671C6.05674 13.9059 6.1009 13.8538 6.15689 13.8172C6.21289 13.7806 6.27832 13.761 6.34522 13.7608L22.0549 13.748C22.1508 13.7481 22.2456 13.7681 22.3333 13.8069C22.421 13.8458 22.4996 13.9024 22.5641 13.9734L25.9095 17.6591ZM9.43606 7.22555C9.5006 7.1546 9.5792 7.0979 9.66689 7.05908C9.75449 7.02027 9.84937 7.00018 9.9452 7.00012L25.6549 7.01298C25.7219 7.01312 25.7873 7.03268 25.8432 7.06928C25.8993 7.10589 25.9434 7.15797 25.9703 7.2192C25.9973 7.28043 26.0059 7.34817 25.9951 7.41419C25.9843 7.48021 25.9546 7.54166 25.9095 7.59112L22.5641 11.2747C22.4995 11.3457 22.4208 11.4024 22.3331 11.4412C22.2454 11.4801 22.1505 11.5001 22.0545 11.5001L6.34522 11.4873C6.27832 11.4871 6.21289 11.4675 6.15689 11.4309C6.1009 11.3943 6.05674 11.3422 6.02978 11.281C6.00282 11.2198 5.99422 11.152 6.00502 11.086C6.01582 11.02 6.04558 10.9586 6.09064 10.9091L9.43606 7.22555Z" fill="url(#paint0_linear_771_200)"/>
<defs>
<linearGradient id="paint0_linear_771_200" x1="7.68865" y1="25.4291" x2="24.217" y2="6.9142" gradientUnits="userSpaceOnUse">
<stop offset="0.08" stop-color="#9945FF"/>
<stop offset="0.3" stop-color="#8752F3"/>
<stop offset="0.5" stop-color="#5497D5"/>
<stop offset="0.6" stop-color="#43B4CA"/>
<stop offset="0.72" stop-color="#28E0B9"/>
<stop offset="0.97" stop-color="#19FB9B"/>
</linearGradient>
</defs>
</svg>
