<svg width="28" height="28" viewBox="0 0 28 28" fill="none" xmlns="http://www.w3.org/2000/svg">
<g clip-path="url(#clip0_1756_1561)">
<path d="M19.1052 16.447V10.2803H20.3453V16.447H19.1052Z" fill="#F6A500"/>
<path d="M4.65853 18.279H2.00122V12.1123H4.55224C5.79231 12.1123 6.51333 12.7873 6.51333 13.8449C6.51333 14.5287 6.04919 14.9716 5.72854 15.1186C6.11119 15.2922 6.60191 15.682 6.60191 16.504C6.60191 17.6555 5.79054 18.279 4.65853 18.279ZM4.45303 13.1859H3.23953V14.6066H4.45303C4.97918 14.6066 5.27325 14.3214 5.27325 13.8962C5.27325 13.4728 4.97918 13.1859 4.45303 13.1859ZM4.53275 15.689H3.23953V17.2055H4.53275C5.09433 17.2055 5.36183 16.86 5.36183 16.4437C5.36183 16.0274 5.09433 15.6908 4.53275 15.6908V15.689Z" fill="white"/>
<path d="M10.384 15.7493V18.279H9.15282V15.7493L7.24487 12.1123H8.59124L9.7764 14.5978L10.9456 12.1123H12.292L10.384 15.7493Z" fill="white"/>
<path d="M15.8067 18.279H13.1494V12.1123H15.7004C16.9405 12.1123 17.6615 12.7873 17.6615 13.8449C17.6615 14.5287 17.1974 14.9716 16.8767 15.1186C17.2594 15.2922 17.7501 15.682 17.7501 16.504C17.7501 17.6555 16.9387 18.279 15.8067 18.279ZM15.6012 13.1859H14.3877V14.6066H15.6012C16.1274 14.6066 16.4214 14.3214 16.4214 13.8962C16.4214 13.4728 16.1274 13.1859 15.6012 13.1859ZM15.6809 15.689H14.3877V17.2055H15.6809C16.2425 17.2055 16.51 16.86 16.51 16.4437C16.51 16.0274 16.2425 15.6908 15.6809 15.6908V15.689Z" fill="white"/>
<path d="M24.3401 13.1859V18.279H23.1018V13.1859H21.4419V12.1123H26.0001V13.1859H24.3401Z" fill="white"/>
</g>
<defs>
<clipPath id="clip0_1756_1561">
<rect width="24" height="7.99496" fill="white" transform="translate(2.00073 10.2822)"/>
</clipPath>
</defs>
</svg>
